<svg xmlns="http://www.w3.org/2000/svg" viewBox="0 0 800 540" role="img" aria-label="Schematic diagram: The wrong output, not a broken Mac">
  <title>macOS — The wrong output, not a broken Mac</title>
  <style>
    @import url('https://fonts.googleapis.com/css2?family=IBM+Plex+Mono:wght@400;500;600&amp;family=Instrument+Serif:ital@1&amp;display=swap');
    .mono { font-family: "IBM Plex Mono", ui-monospace, Consolas, monospace; }
    .serif { font-family: "Instrument Serif", Georgia, serif; font-style: italic; }
  </style>

<rect x="0" y="0" width="800" height="540" fill="#f1eee6"/>

<text class="mono" x="48" y="52" font-size="11" letter-spacing="2" fill="#5f5b50">FIG. 84 — MACOS · AUDIO</text>
<text class="serif" x="48" y="88" font-size="30" fill="#131210">The wrong output, not a broken Mac</text>
<text class="mono" x="752" y="52" font-size="11" letter-spacing="1.5" fill="#5f5b50" text-anchor="end">5 MIN · EASY</text>

<rect x="70" y="120" width="430" height="330" fill="#e9e5d8" stroke="#131210" stroke-width="2"/><line x1="70" y1="154" x2="500" y2="154" stroke="rgba(19,18,16,.18)" stroke-width="1"/><rect x="88" y="132" width="10" height="10" fill="#131210"/><text class="mono" x="106" y="141" font-size="11" fill="#5f5b50">System Settings — Sound → Output</text><line x1="438" y1="137" x2="452" y2="137" stroke="#131210" stroke-width="1.5"/><line x1="470" y1="131" x2="482" y2="143"/><line x1="482" y1="131" x2="470" y2="143"/><rect x="84" y="237" width="402" height="38" fill="#c8f03c"/><text class="mono" x="96" y="260" font-size="12" font-weight="600" fill="#131210">MacBook Speakers</text><rect x="404" y="245" width="72" height="22" fill="none" stroke="#131210" stroke-width="1.5"/><text class="mono" x="440" y="259.5" font-size="9.5" font-weight="600" fill="#131210" text-anchor="middle">SELECT ✓</text><text class="mono" x="96" y="310" font-size="12" fill="#131210">Bluetooth speaker</text><text class="mono" x="96" y="360" font-size="12" fill="#131210">External display audio</text>
<rect x="520" y="170" width="210" height="118" fill="#f7f5ee" stroke="rgba(19,18,16,.18)" stroke-width="1.5"/>
<text class="mono" x="536" y="198" font-size="9.5" font-weight="600" letter-spacing="1" fill="#131210">FIRST CHECK</text><text class="mono" x="536" y="220" font-size="11" fill="#5f5b50">not muted +</text><text class="mono" x="536" y="238" font-size="11" fill="#5f5b50">slider up</text>

<line x1="70" y1="482" x2="730" y2="482" stroke="rgba(19,18,16,.18)" stroke-width="1"/>
<text class="mono" x="70" y="506" font-size="10.5" letter-spacing="1" fill="#5f5b50">VOLUME MENU · SOUND → OUTPUT — A SETTINGS CHECK, NOT A RESET</text>
</svg>
