<svg xmlns="http://www.w3.org/2000/svg" viewBox="0 0 800 540" role="img" aria-label="Schematic diagram: No magic pill exists">
  <title>Windows — No magic pill exists</title>
  <style>
    @import url('https://fonts.googleapis.com/css2?family=IBM+Plex+Mono:wght@400;500;600&amp;family=Instrument+Serif:ital@1&amp;display=swap');
    .mono { font-family: "IBM Plex Mono", ui-monospace, Consolas, monospace; }
    .serif { font-family: "Instrument Serif", Georgia, serif; font-style: italic; }
  </style>

<rect x="0" y="0" width="800" height="540" fill="#f1eee6"/>

<text class="mono" x="48" y="52" font-size="11" letter-spacing="2" fill="#5f5b50">FIG. 36 — WINDOWS · SECURITY</text>
<text class="serif" x="48" y="88" font-size="30" fill="#131210">No magic pill exists</text>
<text class="mono" x="752" y="52" font-size="11" letter-spacing="1.5" fill="#5f5b50" text-anchor="end">10 MIN · EASY</text>

<rect x="70" y="140" width="315" height="290" fill="#e9e5d8" stroke="#131210" stroke-width="2"/><text class="mono" x="90" y="176" font-size="11" font-weight="600" letter-spacing="1" fill="#131210">'PC OPTIMIZER'</text><rect x="90" y="192" width="65" height="26" fill="none" stroke="rgba(19,18,16,.4)" stroke-width="1.5"/><text class="mono" x="100" y="210" font-size="10.5" font-weight="600" fill="#5f5b50">✕ SCAM</text><rect x="90" y="245" width="7" height="7" fill="rgba(19,18,16,.5)"/><text class="mono" x="106" y="254" font-size="12" fill="#131210">nags about 'errors'</text><rect x="90" y="275" width="7" height="7" fill="rgba(19,18,16,.5)"/><text class="mono" x="106" y="284" font-size="12" fill="#131210">registry 'cleaning'</text><rect x="90" y="305" width="7" height="7" fill="rgba(19,18,16,.5)"/><text class="mono" x="106" y="314" font-size="12" fill="#131210">adware in a suit</text><rect x="415" y="140" width="315" height="290" fill="#e9e5d8" stroke="#131210" stroke-width="2"/><text class="mono" x="435" y="176" font-size="11" font-weight="600" letter-spacing="1" fill="#131210">BUILT-INS</text><rect x="435" y="192" width="65" height="26" fill="#c8f03c"/><text class="mono" x="445" y="210" font-size="10.5" font-weight="600" fill="#131210">✓ FREE</text><rect x="435" y="245" width="7" height="7" fill="rgba(19,18,16,.5)"/><text class="mono" x="451" y="254" font-size="12" fill="#131210">sfc /scannow · DISM</text><rect x="435" y="275" width="7" height="7" fill="rgba(19,18,16,.5)"/><text class="mono" x="451" y="284" font-size="12" fill="#131210">Disk Cleanup</text><rect x="435" y="305" width="7" height="7" fill="rgba(19,18,16,.5)"/><text class="mono" x="451" y="314" font-size="12" fill="#131210">Storage Sense</text>

<line x1="70" y1="482" x2="730" y2="482" stroke="rgba(19,18,16,.18)" stroke-width="1"/>
<text class="mono" x="70" y="506" font-size="10.5" letter-spacing="1" fill="#5f5b50">UNINSTALL THE NAGS — KEEP THE BUILT-INS</text>
</svg>
